<?xml version="1.0" encoding="utf-8"?>
<!-- Generator: Adobe Illustrator 25.3.1, SVG Export Plug-In . SVG Version: 6.00 Build 0)  -->
<svg version="1.1" id="Calque_1" xmlns="http://www.w3.org/2000/svg" xmlns:xlink="http://www.w3.org/1999/xlink" x="0px" y="0px"
	 viewBox="0 0 709.4 294.5" style="enable-background:new 0 0 709.4 294.5;" xml:space="preserve">
<style type="text/css">
	.st0{fill:#1A3642;}
	.st1{fill:#E6214E;}
</style>
<g id="Calque_2_1_">
	<g id="Calque_1-2">
		<path class="st0" d="M136.6,135.8h15.2l21.9,47.7l12.9-47.7h16.3l-20.1,75h-14L146,161.6l-13.2,49.2h-16.3L136.6,135.8z"/>
		<path class="st0" d="M219,187.8c0.5,6.8,4.6,11.2,13.2,11.2c4.3,0,8-1.3,12.8-4.6l7.5,10.1c-5.1,4.3-12.3,7.6-22.1,7.6
			c-16.5,0-26.6-9.6-26.6-25.5c0.1-9.2,3.9-18,10.4-24.5c6.3-6.3,14.8-9.8,23.7-9.8c14.9,0,23.5,9.6,23.5,22.4
			c-0.1,4.5-1.1,8.9-2.9,13.1L219,187.8z M220.5,177.6h25c0.4-1.2,0.5-2.5,0.5-3.8c0-4.7-2.8-8.5-9.4-8.5c-4.3,0-8.4,1.7-11.5,4.8
			C223.1,172.3,221.5,174.8,220.5,177.6L220.5,177.6z"/>
		<path class="st0" d="M260.9,220.1l8.6-11.1c6.1,4,13.3,6.2,20.7,6.3c5.5,0,9.3-1.5,12.4-4.6c2.5-2.5,4-5.8,5.2-10.3l0.5-1.9
			c-6,5.4-10.9,7.6-18,7.6c-11,0-21.3-7-21.3-20c0-9.2,3.7-18,10.2-24.5c5.6-5.7,13.2-9,21.2-9.2c9.9,0,14.5,4.7,17.5,10l2.4-8.9
			h16.3l-12.3,46.2c-3.1,11.6-5.5,16.1-10.1,20.7c-5.2,5.2-12.4,7.9-22.9,7.9C279.6,228.2,268.5,225.3,260.9,220.1z M308.7,188.1
			c3.2-3.1,5-7.3,5-11.7c0-6.5-4.5-10.5-11.4-10.5c-4.2,0-8.3,1.8-11.2,4.8c-3.3,3.2-5.2,7.6-5.2,12.2c0,6.7,4.5,10.2,10.9,10.2
			C301.3,193.1,305.5,191.3,308.7,188.1L308.7,188.1z"/>
		<path class="st0" d="M401.7,178.9c-0.1,8.8-3.7,17.2-10,23.4c-6.1,6.3-14.5,9.8-23.2,9.9c-17,0-27.6-11.2-27.6-26.6
			c0.1-8.8,3.7-17.2,10-23.4c6.1-6.2,14.5-9.8,23.2-9.9C391.1,152.3,401.7,163.6,401.7,178.9z M379.6,193.7c3.8-3.9,5.9-9,6.1-14.4
			c0-8.5-5-13.1-12.4-13.1c-3.9,0.1-7.7,1.7-10.4,4.5c-3.8,3.9-5.9,9-6.1,14.4c0,8.5,5,13.1,12.4,13.1
			C373.1,198.1,376.9,196.5,379.6,193.7z"/>
		<path class="st0" d="M410.7,186.2c0-8.9,3.5-17.5,9.9-23.8c6.3-6.4,15-10,24-10.1c12.6,0,19.6,5.8,23.6,12.6l-12.4,8.8
			c-2.9-4.4-6-7.5-12.4-7.5c-3.9,0.2-7.6,1.9-10.2,4.8c-4,4.1-6.2,9.5-6.2,15.2c0,7.4,4.9,12.1,11.2,12.1c5,0,8.7-2,13-5.7l8.4,10.6
			c-6,5.4-12.1,8.9-21.9,8.9C421.8,212.1,410.7,201.8,410.7,186.2z"/>
		<path class="st0" d="M481.9,153.4h16.3l-15.4,57.4h-16.3L481.9,153.4z M487.2,132.6h17.1l-4,14.5h-17.1L487.2,132.6z"/>
		<path class="st0" d="M499.3,196.5c-0.1-5.2,1.8-10.2,5.5-13.8c4.5-4.5,11.4-6.9,19.3-6.9c5.5,0,11,0.9,16.2,2.6l0.2-0.8
			c0.4-1.4,0.6-2.8,0.6-4.3c0-4-2.8-6.8-10.8-6.8c-5.3,0.1-10.5,1.1-15.3,3.1l-2.6-12.9c6.8-2.7,14-4.1,21.3-4.1
			c15.4,0,23.2,6.4,23.2,17.7c0,2.9-0.5,5.9-1.3,8.7l-8.5,31.7h-15.7l1.7-6.6c-4.3,4.9-10.6,7.7-17.1,7.7
			C506,211.9,499.3,205.5,499.3,196.5z M537.4,189.2l0.4-1.5c-3.4-1.3-7.1-2-10.7-2c-4,0-7.3,1.2-9.3,3.2c-1.5,1.5-2.4,3.6-2.4,5.8
			c0,3.5,2.9,6.1,7.5,6.1C529.7,200.7,535.6,195.4,537.4,189.2L537.4,189.2z"/>
		<path class="st0" d="M576.5,153.4h16.3l-1.6,6c4.1-3.6,9.2-7.1,15.6-7.1c10.3,0,16.9,6.3,16.9,16.7c0,3.2-1,7.3-1.9,10.9
			l-8.2,30.9h-16.3l8.5-31.5c0.4-1.7,0.7-3.4,0.8-5.1c0-4.6-2.9-7.1-7.9-7.1c-6.4,0-10.6,4.6-12.4,11.5l-8.7,32.2h-16.3L576.5,153.4
			z"/>
		<path class="st1" d="M339.8,266.8c0.1-10,4.1-19.6,11.3-26.7c7.3-7.3,17.2-11.4,27.5-11.5c12.2,0,20.4,5.2,25.5,13.6l-11.6,8.1
			c-3.7-5.3-8-8.8-15.7-8.8c-5.7,0.1-11,2.5-14.9,6.6c-4.8,4.8-7.5,11.3-7.6,18.1c0,9.2,6.5,15.4,15.6,15.4c6.2,0,10.2-2.5,14.9-6.3
			l9.1,9.5c-6.1,5.6-13.5,9.7-24.1,9.7C352.4,294.5,339.8,283.8,339.8,266.8z"/>
		<path class="st1" d="M417.9,227h13.8l-17.9,66.5h-13.9L417.9,227z"/>
		<path class="st1" d="M482.9,266.3c-0.1,7.5-3.1,14.6-8.5,19.9c-5.2,5.3-12.3,8.3-19.8,8.4c-14.5,0-23.5-9.6-23.5-22.6
			c0.1-7.5,3.1-14.6,8.5-19.9c5.2-5.3,12.3-8.3,19.8-8.4C473.8,243.7,482.9,253.3,482.9,266.3z M464.1,278.9
			c3.2-3.3,5.1-7.6,5.2-12.2c0-7.2-4.3-11.1-10.6-11.1c-3.3,0.1-6.5,1.4-8.8,3.8c-3.2,3.3-5.1,7.6-5.2,12.2
			c0,7.2,4.3,11.1,10.6,11.1C458.6,282.7,461.8,281.3,464.1,278.9z"/>
		<path class="st1" d="M490.4,280.2c0.2-3.2,0.7-6.3,1.6-9.3l7-26.2h13.9l-7.2,26.8c-0.4,1.4-0.6,2.9-0.6,4.4c0,3.9,2.5,6,6.7,6
			c5.5,0,9-3.9,10.6-9.8l7.4-27.4h13.8l-13,48.8h-13.9l1.4-5.1c-3.5,3.1-7.8,6-13.3,6C496.1,294.4,490.4,289,490.4,280.2z"/>
		<path class="st1" d="M579.5,288.2c-4.2,3.9-8.3,6.2-13.8,6.2c-10.7,0-18.8-7.7-18.8-21c-0.1-8.1,3-16,8.8-21.8
			c4.8-5,11.4-7.8,18.3-7.9c7.7,0,12.1,3.2,15.3,8l6.5-24.7h13.8l-17.8,66.5H578L579.5,288.2z M581,278.5c3.4-3.4,5.3-8,5.3-12.8
			c0-6.2-4.4-10.4-10.5-10.4c-3.5,0.1-6.9,1.6-9.3,4.1c-3.4,3.5-5.3,8.1-5.2,13c0,6.4,4,10.2,10.2,10.2
			C575.1,282.6,578.5,281.1,581,278.5L581,278.5z"/>
		<circle class="st1" cx="303.1" cy="260.4" r="9"/>
		<path class="st0" d="M89.6,238.4h-6.1C37.4,238.4,0,201,0,154.9c0-46.1,37.4-83.5,83.5-83.5h1.1c26.3-60.3,96.5-87.8,156.8-61.5
			c43.4,19,71.5,61.9,71.4,109.2c0,5-4,9-9,9s-9-4-9-9c0.1-55.8-45.1-101.1-101-101.2c-42.3,0-80.2,26.3-94.9,66l-2.4,6.5l-6.9-0.6
			c-2.3-0.2-4.3-0.3-6.2-0.3c-36.1,0-65.4,29.3-65.4,65.4c0,36.1,29.3,65.4,65.4,65.4h6.1c5,0,9,4,9,9
			C98.6,234.4,94.6,238.4,89.6,238.4L89.6,238.4z"/>
		<path class="st1" d="M658.3,279.8h-30.4c-5,0-9-4-9-9s4-9,9-9h30.4c17.9,0.3,32.6-13.9,33-31.8c0.3-17.9-13.9-32.6-31.8-33
			c-0.4,0-0.8,0-1.1,0h-11.5c-5,0-9-4-9-9s4-9,9-9h11.5c27.9-0.4,50.8,21.9,51.1,49.7c0.4,27.9-21.9,50.8-49.7,51.1
			c-0.5,0-0.9,0-1.4,0V279.8z"/>
	</g>
</g>
</svg>
